<?xml version="1.0" encoding="UTF-8" standalone="no"?>
<!-- Created with Inkscape (http://www.inkscape.org/) -->
<svg
   xmlns:dc="http://purl.org/dc/elements/1.1/"
   xmlns:cc="http://creativecommons.org/ns#"
   xmlns:rdf="http://www.w3.org/1999/02/22-rdf-syntax-ns#"
   xmlns:svg="http://www.w3.org/2000/svg"
   xmlns="http://www.w3.org/2000/svg"
   xmlns:xlink="http://www.w3.org/1999/xlink"
   xmlns:sodipodi="http://sodipodi.sourceforge.net/DTD/sodipodi-0.dtd"
   xmlns:inkscape="http://www.inkscape.org/namespaces/inkscape"
   width="64px"
   height="64px"
   id="svg3431"
   sodipodi:version="0.32"
   inkscape:version="0.46"
   sodipodi:docname="pivot_center.svg"
   inkscape:output_extension="org.inkscape.output.svg.inkscape"
   inkscape:export-filename="C:\Documents and Settings\Erik\My Documents\My Dropbox\Photos\Portalized icons\pivot_center.png"
   inkscape:export-xdpi="90"
   inkscape:export-ydpi="90">
  <defs
     id="defs3433">
    <linearGradient
       id="linearGradient4159">
      <stop
         style="stop-color:#ffffff;stop-opacity:0.74901962;"
         offset="0"
         id="stop4161" />
      <stop
         style="stop-color:#ffffff;stop-opacity:0.04313726;"
         offset="1"
         id="stop4163" />
    </linearGradient>
    <linearGradient
       id="linearGradient4095">
      <stop
         style="stop-color:#c2c2c2;stop-opacity:1;"
         offset="0"
         id="stop4097" />
      <stop
         style="stop-color:#5f5f5f;stop-opacity:1;"
         offset="1"
         id="stop4099" />
    </linearGradient>
    <inkscape:perspective
       sodipodi:type="inkscape:persp3d"
       inkscape:vp_x="0 : 32 : 1"
       inkscape:vp_y="0 : 1000 : 0"
       inkscape:vp_z="64 : 32 : 1"
       inkscape:persp3d-origin="32 : 21.333333 : 1"
       id="perspective3439" />
    <inkscape:perspective
       id="perspective3570"
       inkscape:persp3d-origin="372.04724 : 350.78739 : 1"
       inkscape:vp_z="744.09448 : 526.18109 : 1"
       inkscape:vp_y="0 : 1000 : 0"
       inkscape:vp_x="0 : 526.18109 : 1"
       sodipodi:type="inkscape:persp3d" />
    <linearGradient
       inkscape:collect="always"
       xlink:href="#linearGradient4095"
       id="linearGradient4109"
       x1="28.708162"
       y1="11.292427"
       x2="2.3827534"
       y2="56.889374"
       gradientUnits="userSpaceOnUse" />
    <linearGradient
       inkscape:collect="always"
       xlink:href="#linearGradient4095"
       id="linearGradient4113"
       gradientUnits="userSpaceOnUse"
       x1="28.708162"
       y1="11.292427"
       x2="2.3827534"
       y2="56.889374"
       gradientTransform="translate(33.636363,0)" />
    <linearGradient
       inkscape:collect="always"
       xlink:href="#linearGradient4095"
       id="linearGradient4145"
       gradientUnits="userSpaceOnUse"
       x1="28.708162"
       y1="11.292427"
       x2="2.3827534"
       y2="56.889374"
       gradientTransform="translate(-0.5454545,0)" />
    <linearGradient
       inkscape:collect="always"
       xlink:href="#linearGradient4159"
       id="linearGradient4165"
       x1="38.1875"
       y1="22.984375"
       x2="60.1875"
       y2="22.984375"
       gradientUnits="userSpaceOnUse" />
    <linearGradient
       inkscape:collect="always"
       xlink:href="#linearGradient4159"
       id="linearGradient4173"
       x1="3.4218421"
       y1="23.59375"
       x2="26.578157"
       y2="23.59375"
       gradientUnits="userSpaceOnUse" />
    <linearGradient
       inkscape:collect="always"
       xlink:href="#linearGradient4159"
       id="linearGradient4212"
       gradientUnits="userSpaceOnUse"
       x1="38.1875"
       y1="22.984375"
       x2="60.1875"
       y2="22.984375"
       gradientTransform="translate(2.375,19.25)" />
    <linearGradient
       inkscape:collect="always"
       xlink:href="#linearGradient4159"
       id="linearGradient4258"
       gradientUnits="userSpaceOnUse"
       x1="38.1875"
       y1="22.984375"
       x2="60.1875"
       y2="22.984375" />
    <linearGradient
       inkscape:collect="always"
       xlink:href="#linearGradient4159"
       id="linearGradient4263"
       gradientUnits="userSpaceOnUse"
       x1="38.1875"
       y1="22.984375"
       x2="60.1875"
       y2="22.984375" />
    <linearGradient
       inkscape:collect="always"
       xlink:href="#linearGradient4159"
       id="linearGradient4266"
       gradientUnits="userSpaceOnUse"
       x1="38.1875"
       y1="22.984375"
       x2="60.1875"
       y2="22.984375" />
    <linearGradient
       inkscape:collect="always"
       xlink:href="#linearGradient4159"
       id="linearGradient4308"
       gradientUnits="userSpaceOnUse"
       x1="38.1875"
       y1="22.984375"
       x2="60.1875"
       y2="22.984375" />
    <linearGradient
       inkscape:collect="always"
       xlink:href="#linearGradient4159"
       id="linearGradient4370"
       gradientUnits="userSpaceOnUse"
       x1="38.1875"
       y1="22.984375"
       x2="60.1875"
       y2="22.984375" />
    <linearGradient
       inkscape:collect="always"
       xlink:href="#linearGradient4159"
       id="linearGradient4373"
       gradientUnits="userSpaceOnUse"
       x1="38.1875"
       y1="22.984375"
       x2="60.1875"
       y2="22.984375" />
    <linearGradient
       inkscape:collect="always"
       xlink:href="#linearGradient4095"
       id="linearGradient4405"
       gradientUnits="userSpaceOnUse"
       gradientTransform="translate(-0.196024,0)"
       x1="28.708162"
       y1="11.292427"
       x2="2.3827534"
       y2="56.889374" />
    <linearGradient
       inkscape:collect="always"
       xlink:href="#linearGradient4159"
       id="linearGradient4545"
       x1="34.375"
       y1="23.6875"
       x2="63.5"
       y2="23.6875"
       gradientUnits="userSpaceOnUse" />
    <linearGradient
       inkscape:collect="always"
       xlink:href="#linearGradient4159"
       id="linearGradient4553"
       x1="0.5625"
       y1="24.625"
       x2="29.96875"
       y2="24.625"
       gradientUnits="userSpaceOnUse" />
    <linearGradient
       inkscape:collect="always"
       xlink:href="#linearGradient4095"
       id="linearGradient4595"
       gradientUnits="userSpaceOnUse"
       gradientTransform="translate(33.636363,0)"
       x1="28.708162"
       y1="11.292427"
       x2="2.3827534"
       y2="56.889374" />
    <linearGradient
       inkscape:collect="always"
       xlink:href="#linearGradient4159"
       id="linearGradient4597"
       gradientUnits="userSpaceOnUse"
       x1="34.375"
       y1="23.6875"
       x2="63.5"
       y2="23.6875" />
    <linearGradient
       inkscape:collect="always"
       xlink:href="#linearGradient4095"
       id="linearGradient4599"
       gradientUnits="userSpaceOnUse"
       gradientTransform="translate(-0.196024,0)"
       x1="28.708162"
       y1="11.292427"
       x2="2.3827534"
       y2="56.889374" />
    <linearGradient
       inkscape:collect="always"
       xlink:href="#linearGradient4159"
       id="linearGradient4601"
       gradientUnits="userSpaceOnUse"
       x1="0.5625"
       y1="24.625"
       x2="29.96875"
       y2="24.625" />
    <linearGradient
       inkscape:collect="always"
       xlink:href="#linearGradient4159"
       id="linearGradient3203"
       gradientUnits="userSpaceOnUse"
       x1="0.5625"
       y1="24.625"
       x2="29.96875"
       y2="24.625"
       gradientTransform="translate(0.6875,0)" />
    <linearGradient
       inkscape:collect="always"
       xlink:href="#linearGradient4095"
       id="linearGradient3210"
       gradientUnits="userSpaceOnUse"
       gradientTransform="translate(0.491476,0)"
       x1="28.708162"
       y1="11.292427"
       x2="2.3827534"
       y2="56.889374" />
    <linearGradient
       inkscape:collect="always"
       xlink:href="#linearGradient4159"
       id="linearGradient3219"
       gradientUnits="userSpaceOnUse"
       x1="34.375"
       y1="23.6875"
       x2="63.5"
       y2="23.6875"
       gradientTransform="translate(-0.9375,0)" />
    <linearGradient
       inkscape:collect="always"
       xlink:href="#linearGradient4095"
       id="linearGradient3226"
       gradientUnits="userSpaceOnUse"
       gradientTransform="translate(32.698863,0)"
       x1="28.708162"
       y1="11.292427"
       x2="2.3827534"
       y2="56.889374" />
  </defs>
  <sodipodi:namedview
     id="base"
     pagecolor="#ffffff"
     bordercolor="#666666"
     borderopacity="1.0"
     inkscape:pageopacity="0.0"
     inkscape:pageshadow="2"
     inkscape:zoom="1"
     inkscape:cx="31.631296"
     inkscape:cy="36.882694"
     inkscape:current-layer="layer1"
     showgrid="true"
     inkscape:document-units="px"
     inkscape:grid-bbox="true"
     showguides="true"
     inkscape:guide-bbox="true"
     inkscape:window-width="1920"
     inkscape:window-height="1144"
     inkscape:window-x="-4"
     inkscape:window-y="-4" />
  <metadata
     id="metadata3436">
    <rdf:RDF>
      <cc:Work
         rdf:about="">
        <dc:format>image/svg+xml</dc:format>
        <dc:type
           rdf:resource="http://purl.org/dc/dcmitype/StillImage" />
      </cc:Work>
    </rdf:RDF>
  </metadata>
  <g
     id="layer1"
     inkscape:label="Layer 1"
     inkscape:groupmode="layer">
    <image
       y="0"
       x="7.1054274e-15"
       id="image3572"
       height="64"
       width="64"
       sodipodi:absref="C:\Documents and Settings\Erik\Desktop\portalized_tester_build1016\Portalized\data\gui\button_reference_pivotcenter.png"
       xlink:href="C:\Documents and Settings\Erik\Desktop\portalized_tester_build1016\Portalized\data\gui\button_reference_pivotcenter.png"
       style="display:none" />
    <rect
       style="fill:url(#linearGradient3226);fill-opacity:1;fill-rule:evenodd;stroke:#000000;stroke-width:1.5;stroke-linecap:butt;stroke-linejoin:miter;stroke-opacity:1;stroke-miterlimit:4;stroke-dasharray:none"
       id="rect4111"
       width="22"
       height="46.363636"
       x="37.244316"
       y="10.909091" />
    <g
       id="g4378"
       transform="translate(-0.9375,0)">
      <path
         id="path3580"
         d="M 49.105114,18.03125 C 41.001877,18.03125 34.386363,24.615512 34.386364,32.71875 C 34.386364,40.821987 41.001876,47.437501 49.105114,47.4375 C 57.208351,47.4375 63.792615,40.821987 63.792614,32.71875 C 63.792614,24.615513 57.208352,18.031249 49.105114,18.03125 z M 49.105114,20.53125 C 55.855694,20.531249 61.292614,25.96817 61.292614,32.71875 C 61.292615,39.46933 55.855694,44.9375 49.105114,44.9375 C 42.354534,44.937501 36.886364,39.46933 36.886364,32.71875 C 36.886363,25.96817 42.354534,20.53125 49.105114,20.53125 z"
         style="fill:#000000;fill-opacity:1;fill-rule:evenodd;stroke:none;stroke-width:2.5;stroke-linecap:butt;stroke-linejoin:miter;stroke-miterlimit:4;stroke-dasharray:none;stroke-opacity:1" />
      <path
         id="path4127"
         d="M 50.56737,32.727271 C 50.56737,33.542279 49.905914,34.203735 49.090906,34.203735 C 48.275898,34.203735 47.614442,33.542279 47.614442,32.727271 C 47.614442,31.912263 48.275898,31.250807 49.090906,31.250807 C 49.905914,31.250807 50.56737,31.912263 50.56737,32.727271 z"
         style="fill:#000000;fill-opacity:1;fill-rule:evenodd;stroke:none;stroke-width:2.5;stroke-linecap:butt;stroke-linejoin:miter;stroke-miterlimit:4;stroke-opacity:1" />
      <path
         sodipodi:nodetypes="ccccccc"
         id="path4135"
         d="M 45.96875,11.4375 L 42.90625,14.25 L 48.0625,19.40625 L 42.875,24.59375 L 45.78125,27.46875 L 53.875,19.375 L 45.96875,11.4375 z"
         style="fill:#000000;fill-opacity:1;fill-rule:evenodd;stroke:none;stroke-width:1px;stroke-linecap:butt;stroke-linejoin:miter;stroke-opacity:1" />
    </g>
    <path
       style="fill:url(#linearGradient3219);fill-opacity:1;fill-rule:evenodd;stroke:none;stroke-width:1.06081486px;stroke-linecap:butt;stroke-linejoin:miter;stroke-opacity:1"
       d="M 38.001301,11.679648 L 37.979204,22.132211 L 37.25,22.90625 C 34.886331,25.506527 33.437499,28.938093 33.4375,32.71875 C 33.4375,34.012729 33.620992,35.271525 33.9375,36.46875 C 34.77803,36.354798 35.608621,36.248686 36.4375,36.125 C 36.122836,35.041188 35.9375,33.904352 35.9375,32.71875 C 35.9375,30.746483 36.417059,28.894698 37.25,27.25 L 38.023398,25.879757 L 37.979204,35.889515 C 41.543599,35.341436 44.27059,34.8154 47.59375,34.09375 C 47.677716,34.075516 47.75995,34.049589 47.84375,34.03125 C 48.146381,33.964209 48.450462,33.912576 48.75,33.84375 C 48.919298,33.805666 49.081401,33.757265 49.25,33.71875 C 52.741233,32.921202 55.307707,32.299712 58.476602,31.327665 L 58.476602,26.199492 L 59.25,27.65625 C 59.689679,28.622386 60.012522,29.665904 60.1875,30.75 C 60.989191,30.497109 61.783875,30.232362 62.5625,29.96875 C 62.071136,27.379085 60.904768,25.039974 59.25,23.125 L 58.4987,22.329974 L 58.498699,11.635454 L 38.001301,11.679648 z"
       id="path4417"
       sodipodi:nodetypes="cccsccscccssssccccccccc" />
    <g
       id="g4555"
       style="opacity:0.6"
       transform="translate(-0.9375,0)">
      <path
         id="path4557"
         d="M 49.105114,18.03125 C 41.001877,18.03125 34.386363,24.615512 34.386364,32.71875 C 34.386364,40.821987 41.001876,47.437501 49.105114,47.4375 C 57.208351,47.4375 63.792615,40.821987 63.792614,32.71875 C 63.792614,24.615513 57.208352,18.031249 49.105114,18.03125 z M 49.105114,20.53125 C 55.855694,20.531249 61.292614,25.96817 61.292614,32.71875 C 61.292615,39.46933 55.855694,44.9375 49.105114,44.9375 C 42.354534,44.937501 36.886364,39.46933 36.886364,32.71875 C 36.886363,25.96817 42.354534,20.53125 49.105114,20.53125 z"
         style="fill:#000000;fill-opacity:1;fill-rule:evenodd;stroke:none;stroke-width:2.5;stroke-linecap:butt;stroke-linejoin:miter;stroke-miterlimit:4;stroke-dasharray:none;stroke-opacity:1" />
      <path
         id="path4559"
         d="M 50.56737,32.727271 C 50.56737,33.542279 49.905914,34.203735 49.090906,34.203735 C 48.275898,34.203735 47.614442,33.542279 47.614442,32.727271 C 47.614442,31.912263 48.275898,31.250807 49.090906,31.250807 C 49.905914,31.250807 50.56737,31.912263 50.56737,32.727271 z"
         style="fill:#000000;fill-opacity:1;fill-rule:evenodd;stroke:none;stroke-width:2.5;stroke-linecap:butt;stroke-linejoin:miter;stroke-miterlimit:4;stroke-opacity:1" />
      <path
         sodipodi:nodetypes="ccccccc"
         id="path4561"
         d="M 45.96875,11.4375 L 42.90625,14.25 L 48.0625,19.40625 L 42.875,24.59375 L 45.78125,27.46875 L 53.875,19.375 L 45.96875,11.4375 z"
         style="fill:#000000;fill-opacity:1;fill-rule:evenodd;stroke:none;stroke-width:1px;stroke-linecap:butt;stroke-linejoin:miter;stroke-opacity:1" />
    </g>
    <rect
       style="fill:url(#linearGradient3210);fill-opacity:1;fill-rule:evenodd;stroke:#000000;stroke-width:1.5;stroke-linecap:butt;stroke-linejoin:miter;stroke-opacity:1;stroke-miterlimit:4;stroke-dasharray:none"
       id="rect4395"
       width="22"
       height="46.363636"
       x="5.0369291"
       y="10.909091" />
    <g
       id="g4397"
       transform="translate(-33.144887,0)">
      <path
         id="path4399"
         d="M 49.105114,18.03125 C 41.001877,18.03125 34.386363,24.615512 34.386364,32.71875 C 34.386364,40.821987 41.001876,47.437501 49.105114,47.4375 C 57.208351,47.4375 63.792615,40.821987 63.792614,32.71875 C 63.792614,24.615513 57.208352,18.031249 49.105114,18.03125 z M 49.105114,20.53125 C 55.855694,20.531249 61.292614,25.96817 61.292614,32.71875 C 61.292615,39.46933 55.855694,44.9375 49.105114,44.9375 C 42.354534,44.937501 36.886364,39.46933 36.886364,32.71875 C 36.886363,25.96817 42.354534,20.53125 49.105114,20.53125 z"
         style="fill:#000000;fill-opacity:1;fill-rule:evenodd;stroke:none;stroke-width:2.5;stroke-linecap:butt;stroke-linejoin:miter;stroke-miterlimit:4;stroke-dasharray:none;stroke-opacity:1" />
      <path
         id="path4401"
         d="M 50.56737,32.727271 C 50.56737,33.542279 49.905914,34.203735 49.090906,34.203735 C 48.275898,34.203735 47.614442,33.542279 47.614442,32.727271 C 47.614442,31.912263 48.275898,31.250807 49.090906,31.250807 C 49.905914,31.250807 50.56737,31.912263 50.56737,32.727271 z"
         style="fill:#000000;fill-opacity:1;fill-rule:evenodd;stroke:none;stroke-width:2.5;stroke-linecap:butt;stroke-linejoin:miter;stroke-miterlimit:4;stroke-opacity:1" />
      <path
         sodipodi:nodetypes="ccccccc"
         id="path4403"
         d="M 45.96875,11.4375 L 42.90625,14.25 L 48.0625,19.40625 L 42.875,24.59375 L 45.78125,27.46875 L 53.875,19.375 L 45.96875,11.4375 z"
         style="fill:#000000;fill-opacity:1;fill-rule:evenodd;stroke:none;stroke-width:1px;stroke-linecap:butt;stroke-linejoin:miter;stroke-opacity:1" />
    </g>
    <path
       style="fill:url(#linearGradient3203);fill-opacity:1;fill-rule:evenodd;stroke:none;stroke-width:1.06081486px;stroke-linecap:butt;stroke-linejoin:miter;stroke-opacity:1"
       d="M 5.7935995,11.6686 L 5.7935995,22.119908 C 2.7338752,25.029207 1.2499995,28.954809 1.25,32.71875 C 1.25,34.685132 1.6378912,36.563358 2.34375,38.28125 C 3.2389578,38.300415 4.1297339,38.304747 5.03125,38.3125 C 5.0626941,38.31277 5.0935275,38.312218 5.125,38.3125 C 5.7945229,38.32025 6.4502829,38.34375 7.125,38.34375 C 13.967417,38.34375 19.885292,38.09109 26.279949,37.503791 L 26.279949,26.214578 C 27.579204,27.954436 28.15625,30.878744 28.15625,32.71875 C 28.15625,34.382076 27.817239,35.961255 27.21875,37.40625 C 28.139826,37.320801 29.059025,37.253092 29.96875,37.15625 C 30.411749,35.75583 30.65625,34.262648 30.65625,32.71875 C 30.656251,29.044238 29.273652,25.699418 27.03125,23.125 L 26.2689,22.296829 L 26.257852,11.657551 L 5.7935995,11.6686 z M 5.78125,25.875 L 5.7867743,38.326229 L 5.09375,38.3125 C 4.2103659,36.653605 3.75,34.659265 3.75,32.71875 C 3.7499997,30.758132 4.2745987,28.075006 5.78125,25.875 z"
       id="path4407"
       sodipodi:nodetypes="ccscsssccsccscccccccsc" />
    <g
       id="g4563"
       transform="translate(-33.144887,0)"
       style="opacity:0.6">
      <path
         id="path4565"
         d="M 49.105114,18.03125 C 41.001877,18.03125 34.386363,24.615512 34.386364,32.71875 C 34.386364,40.821987 41.001876,47.437501 49.105114,47.4375 C 57.208351,47.4375 63.792615,40.821987 63.792614,32.71875 C 63.792614,24.615513 57.208352,18.031249 49.105114,18.03125 z M 49.105114,20.53125 C 55.855694,20.531249 61.292614,25.96817 61.292614,32.71875 C 61.292615,39.46933 55.855694,44.9375 49.105114,44.9375 C 42.354534,44.937501 36.886364,39.46933 36.886364,32.71875 C 36.886363,25.96817 42.354534,20.53125 49.105114,20.53125 z"
         style="fill:#000000;fill-opacity:1;fill-rule:evenodd;stroke:none;stroke-width:2.5;stroke-linecap:butt;stroke-linejoin:miter;stroke-miterlimit:4;stroke-dasharray:none;stroke-opacity:1" />
      <path
         id="path4567"
         d="M 50.56737,32.727271 C 50.56737,33.542279 49.905914,34.203735 49.090906,34.203735 C 48.275898,34.203735 47.614442,33.542279 47.614442,32.727271 C 47.614442,31.912263 48.275898,31.250807 49.090906,31.250807 C 49.905914,31.250807 50.56737,31.912263 50.56737,32.727271 z"
         style="fill:#000000;fill-opacity:1;fill-rule:evenodd;stroke:none;stroke-width:2.5;stroke-linecap:butt;stroke-linejoin:miter;stroke-miterlimit:4;stroke-opacity:1" />
      <path
         sodipodi:nodetypes="ccccccc"
         id="path4569"
         d="M 45.96875,11.4375 L 42.90625,14.25 L 48.0625,19.40625 L 42.875,24.59375 L 45.78125,27.46875 L 53.875,19.375 L 45.96875,11.4375 z"
         style="fill:#000000;fill-opacity:1;fill-rule:evenodd;stroke:none;stroke-width:1px;stroke-linecap:butt;stroke-linejoin:miter;stroke-opacity:1" />
    </g>
  </g>
</svg>
