<?xml version="1.0" encoding="UTF-8" standalone="no"?>
<!-- Created with Inkscape (http://www.inkscape.org/) -->
<svg
   xmlns:dc="http://purl.org/dc/elements/1.1/"
   xmlns:cc="http://creativecommons.org/ns#"
   xmlns:rdf="http://www.w3.org/1999/02/22-rdf-syntax-ns#"
   xmlns:svg="http://www.w3.org/2000/svg"
   xmlns="http://www.w3.org/2000/svg"
   xmlns:xlink="http://www.w3.org/1999/xlink"
   xmlns:sodipodi="http://sodipodi.sourceforge.net/DTD/sodipodi-0.dtd"
   xmlns:inkscape="http://www.inkscape.org/namespaces/inkscape"
   width="64px"
   height="64px"
   id="svg2423"
   sodipodi:version="0.32"
   inkscape:version="0.46"
   sodipodi:docname="trigger.svg"
   inkscape:output_extension="org.inkscape.output.svg.inkscape"
   inkscape:export-filename="C:\Documents and Settings\Erik\My Documents\My Dropbox\Photos\Portalized icons\trigger.png"
   inkscape:export-xdpi="90"
   inkscape:export-ydpi="90">
  <defs
     id="defs2425">
    <linearGradient
       id="linearGradient3223">
      <stop
         style="stop-color:#ffffff;stop-opacity:0.74901962;"
         offset="0"
         id="stop3225" />
      <stop
         style="stop-color:#ffffff;stop-opacity:0.04313726;"
         offset="1"
         id="stop3227" />
    </linearGradient>
    <linearGradient
       id="linearGradient3205">
      <stop
         style="stop-color:#c2c2c2;stop-opacity:1;"
         offset="0"
         id="stop3207" />
      <stop
         style="stop-color:#5f5f5f;stop-opacity:1;"
         offset="1"
         id="stop3209" />
    </linearGradient>
    <inkscape:perspective
       sodipodi:type="inkscape:persp3d"
       inkscape:vp_x="0 : 32 : 1"
       inkscape:vp_y="0 : 1000 : 0"
       inkscape:vp_z="64 : 32 : 1"
       inkscape:persp3d-origin="32 : 21.333333 : 1"
       id="perspective2431" />
    <clipPath
       clipPathUnits="userSpaceOnUse"
       id="clipPath3217">
      <path
         sodipodi:type="star"
         style="fill:url(#linearGradient3221);fill-opacity:1;fill-rule:evenodd;stroke:#000000;stroke-width:1px;stroke-linecap:butt;stroke-linejoin:miter;stroke-opacity:1"
         id="path3219"
         sodipodi:sides="3"
         sodipodi:cx="33.090908"
         sodipodi:cy="32.181816"
         sodipodi:r1="30.485872"
         sodipodi:r2="15.242936"
         sodipodi:arg1="0"
         sodipodi:arg2="1.0471976"
         inkscape:flatsided="false"
         inkscape:rounded="0"
         inkscape:randomized="0"
         d="M 63.57678,32.181816 L 40.712375,45.382586 L 17.847972,58.583356 L 17.847972,32.181815 L 17.847972,5.7802763 L 40.712377,18.981047 L 63.57678,32.181816 z"
         transform="matrix(1.0811038,0,0,1.0811038,13.138468,19.571749)" />
    </clipPath>
    <linearGradient
       inkscape:collect="always"
       xlink:href="#linearGradient3205"
       id="linearGradient3221"
       gradientUnits="userSpaceOnUse"
       x1="48.489887"
       y1="20.635405"
       x2="14.755869"
       y2="54.369419" />
    <linearGradient
       inkscape:collect="always"
       xlink:href="#linearGradient3223"
       id="linearGradient3229"
       x1="30.070343"
       y1="55.81818"
       x2="78.545456"
       y2="44.545452"
       gradientUnits="userSpaceOnUse" />
    <linearGradient
       inkscape:collect="always"
       xlink:href="#linearGradient3205"
       id="linearGradient3280"
       x1="59.458874"
       y1="4.5411129"
       x2="5.5411129"
       y2="58.458874"
       gradientUnits="userSpaceOnUse" />
    <clipPath
       clipPathUnits="userSpaceOnUse"
       id="clipPath3286">
      <path
         style="fill:url(#linearGradient3290);fill-opacity:1;fill-rule:evenodd;stroke:#000000;stroke-width:0.98812824px;stroke-linecap:butt;stroke-linejoin:miter;stroke-opacity:1"
         d="M 6.3928742,9.4993859 L 56.178508,9.4993859 L 56.178508,60.510282 L 6.3928742,60.510282 L 6.3928742,9.4993859 z"
         id="path3288" />
    </clipPath>
    <linearGradient
       inkscape:collect="always"
       xlink:href="#linearGradient3205"
       id="linearGradient3290"
       gradientUnits="userSpaceOnUse"
       x1="59.458874"
       y1="4.5411129"
       x2="5.5411129"
       y2="58.458874"
       gradientTransform="matrix(0.9761889,0,0,1.0002136,-0.4404481,3.498104)" />
    <linearGradient
       inkscape:collect="always"
       xlink:href="#linearGradient3223"
       id="linearGradient3298"
       x1="2.7321658"
       y1="40.5"
       x2="60.08931"
       y2="17.499359"
       gradientUnits="userSpaceOnUse" />
    <clipPath
       clipPathUnits="userSpaceOnUse"
       id="clipPath3354">
      <rect
         style="fill:url(#linearGradient3358);fill-opacity:1;fill-rule:evenodd;stroke:#000000;stroke-width:1px;stroke-linecap:butt;stroke-linejoin:miter;stroke-opacity:1"
         id="rect3356"
         width="53.5"
         height="22.5"
         x="6.5"
         y="37" />
    </clipPath>
    <linearGradient
       inkscape:collect="always"
       xlink:href="#linearGradient3205"
       id="linearGradient3358"
       gradientUnits="userSpaceOnUse"
       x1="41.971371"
       y1="33.144119"
       x2="24.528616"
       y2="63.355854" />
    <linearGradient
       inkscape:collect="always"
       xlink:href="#linearGradient3223"
       id="linearGradient3366"
       x1="4.25"
       y1="49.25"
       x2="63.125"
       y2="41"
       gradientUnits="userSpaceOnUse" />
    <clipPath
       clipPathUnits="userSpaceOnUse"
       id="clipPath3372">
      <rect
         style="fill:url(#linearGradient3376);fill-opacity:1;fill-rule:evenodd;stroke:#000000;stroke-width:0.92262745px;stroke-linecap:butt;stroke-linejoin:miter;stroke-opacity:1"
         id="rect3374"
         width="16.540901"
         height="19.568735"
         x="18.050089"
         y="17.127422" />
    </clipPath>
    <linearGradient
       inkscape:collect="always"
       xlink:href="#linearGradient3205"
       id="linearGradient3376"
       gradientUnits="userSpaceOnUse"
       x1="34.780636"
       y1="13.856075"
       x2="20.469366"
       y2="38.643925"
       gradientTransform="matrix(0.8482514,0,0,1.0035249,2.8875953,0.5692627)" />
    <linearGradient
       inkscape:collect="always"
       xlink:href="#linearGradient3223"
       id="linearGradient3384"
       x1="16.141523"
       y1="23.838495"
       x2="35.827801"
       y2="22.751211"
       gradientUnits="userSpaceOnUse" />
    <inkscape:perspective
       id="perspective4307"
       inkscape:persp3d-origin="372.04724 : 350.78739 : 1"
       inkscape:vp_z="744.09448 : 526.18109 : 1"
       inkscape:vp_y="0 : 1000 : 0"
       inkscape:vp_x="0 : 526.18109 : 1"
       sodipodi:type="inkscape:persp3d" />
    <linearGradient
       inkscape:collect="always"
       xlink:href="#linearGradient3205"
       id="linearGradient4836"
       x1="-0.19999981"
       y1="32.200001"
       x2="64.200005"
       y2="32.200001"
       gradientUnits="userSpaceOnUse" />
    <linearGradient
       inkscape:collect="always"
       xlink:href="#linearGradient3205"
       id="linearGradient4844"
       x1="38.518299"
       y1="8.4756117"
       x2="25.931705"
       y2="55.449413"
       gradientUnits="userSpaceOnUse" />
    <clipPath
       clipPathUnits="userSpaceOnUse"
       id="clipPath4864">
      <path
         style="fill:url(#linearGradient4868);fill-opacity:1;fill-rule:evenodd;stroke:#000000;stroke-width:1px;stroke-linecap:butt;stroke-linejoin:miter;stroke-opacity:1"
         d="M 25.046804,4.3757359 L 36.046804,2.7757359 L 43.546804,9.9757359 L 42.346804,24.375736 L 67.196804,49.225736 L 67.196804,54.675736 L 61.571804,60.300736 L 54.446804,60.300736 L 30.846804,31.875736 L 20.546804,34.275736 L 10.546804,24.375736 L 14.146804,14.075736 L 21.546804,22.775736 L 31.146804,21.875736 L 32.446804,12.275736 L 25.046804,4.3757359 z"
         id="path4866" />
    </clipPath>
    <linearGradient
       inkscape:collect="always"
       xlink:href="#linearGradient3205"
       id="linearGradient4868"
       gradientUnits="userSpaceOnUse"
       x1="38.518299"
       y1="8.4756117"
       x2="25.931705"
       y2="55.449413"
       gradientTransform="translate(6.6468037,-0.4242641)" />
    <linearGradient
       inkscape:collect="always"
       xlink:href="#linearGradient3223"
       id="linearGradient4876"
       x1="22.454573"
       y1="36.880554"
       x2="45.909893"
       y2="13.425233"
       gradientUnits="userSpaceOnUse" />
    <clipPath
       clipPathUnits="userSpaceOnUse"
       id="clipPath4882">
      <path
         sodipodi:type="arc"
         style="fill:url(#linearGradient4886);fill-opacity:1;fill-rule:evenodd;stroke:#000000;stroke-width:1px;stroke-linecap:butt;stroke-linejoin:miter;stroke-opacity:1"
         id="path4884"
         sodipodi:cx="52.099998"
         sodipodi:cy="53"
         sodipodi:rx="3.5999999"
         sodipodi:ry="3.5999999"
         d="M 55.699998,53 A 3.5999999,3.5999999 0 1 1 48.499999,53 A 3.5999999,3.5999999 0 1 1 55.699998,53 z" />
    </clipPath>
    <linearGradient
       inkscape:collect="always"
       xlink:href="#linearGradient3205"
       id="linearGradient4886"
       gradientUnits="userSpaceOnUse"
       x1="49.561996"
       y1="57.395947"
       x2="54.638"
       y2="48.604053" />
    <linearGradient
       inkscape:collect="always"
       xlink:href="#linearGradient3223"
       id="linearGradient4894"
       x1="47.350952"
       y1="55.293751"
       x2="56.745319"
       y2="49.400002"
       gradientUnits="userSpaceOnUse" />
    <linearGradient
       inkscape:collect="always"
       xlink:href="#linearGradient3205"
       id="linearGradient4896"
       gradientUnits="userSpaceOnUse"
       x1="48.029781"
       y1="60.04982"
       x2="56.170216"
       y2="45.950172" />
    <linearGradient
       inkscape:collect="always"
       xlink:href="#linearGradient3205"
       id="linearGradient4929"
       x1="45.255413"
       y1="7.263823"
       x2="16.716475"
       y2="56.694717"
       gradientUnits="userSpaceOnUse" />
    <clipPath
       clipPathUnits="userSpaceOnUse"
       id="clipPath4935">
      <path
         style="font-size:40px;font-style:normal;font-weight:normal;fill:url(#linearGradient4939);fill-opacity:1;stroke:#000000;stroke-width:0.5;stroke-linecap:butt;stroke-linejoin:miter;stroke-miterlimit:4;stroke-dasharray:none;stroke-opacity:1;font-family:Bitstream Vera Sans"
         d="M 30.565442,4.9405479 C 28.420422,4.9521419 26.913475,5.2258322 26.044596,5.7616197 C 25.175705,6.2975108 24.756926,7.0262533 24.788258,7.9478494 C 24.788253,8.5942037 24.847607,9.379002 24.966322,10.302249 C 25.085025,11.22559 25.263089,12.445656 25.500513,13.962451 C 26.163299,18.298675 26.756844,22.684318 27.281151,27.119392 C 27.805442,31.554527 28.319849,36.138019 28.824373,40.869882 C 29.046943,41.265594 29.591027,41.463442 30.456625,41.463427 C 31.322202,41.463443 31.886069,41.265595 32.148231,40.869882 C 32.652731,36.13802 33.167137,31.554529 33.69145,27.119393 C 34.215736,22.684318 34.809282,18.298675 35.472091,13.962451 C 35.709493,12.445654 35.887556,11.225586 36.006282,10.302247 C 36.124974,9.379002 36.18433,8.5942037 36.184346,7.9478494 C 36.207411,7.0262533 35.785335,6.2975104 34.918113,5.7616186 C 34.050862,5.2258302 32.599973,4.9521403 30.565442,4.9405479 L 30.565442,4.9405479 z M 30.565442,58.51799 C 32.215815,58.491609 33.544698,57.970608 34.552092,56.954985 C 35.559456,55.939363 36.077161,54.587398 36.105206,52.899086 C 36.075513,51.242107 35.561105,49.886845 34.561985,48.833293 C 33.562833,47.779757 32.257033,47.235674 30.644581,47.201042 C 29.032104,47.235675 27.726303,47.77976 26.727175,48.833295 C 25.728031,49.886848 25.213625,51.242111 25.183956,52.899086 C 25.215275,54.587398 25.726385,55.939363 26.717282,56.954983 C 27.708166,57.970606 28.990884,58.491608 30.565442,58.51799 L 30.565442,58.51799 z"
         id="path4937" />
    </clipPath>
    <linearGradient
       inkscape:collect="always"
       xlink:href="#linearGradient3205"
       id="linearGradient4939"
       gradientUnits="userSpaceOnUse"
       x1="45.255413"
       y1="7.263823"
       x2="16.716475"
       y2="56.694717"
       gradientTransform="translate(-0.5,-0.25)" />
    <linearGradient
       inkscape:collect="always"
       xlink:href="#linearGradient3223"
       id="linearGradient4947"
       x1="24.786621"
       y1="17.75"
       x2="47.75"
       y2="17.75"
       gradientUnits="userSpaceOnUse" />
    <clipPath
       clipPathUnits="userSpaceOnUse"
       id="clipPath4957">
      <path
         style="font-size:40px;font-style:normal;font-weight:normal;fill:url(#linearGradient4961);fill-opacity:1;stroke:#000000;stroke-width:0.5;stroke-linecap:butt;stroke-linejoin:miter;stroke-miterlimit:4;stroke-dasharray:none;stroke-opacity:1;font-family:Bitstream Vera Sans"
         d="M 31.065442,58.76799 C 32.715815,58.741609 34.044698,58.220608 35.052092,57.204985 C 36.059456,56.189363 36.577161,54.837398 36.605206,53.149086 C 36.575513,51.492107 36.061105,50.136845 35.061985,49.083293 C 34.062833,48.029757 32.757033,47.485674 31.144581,47.451042 C 29.532104,47.485675 28.226303,48.02976 27.227175,49.083295 C 26.228031,50.136848 25.713625,51.492111 25.683956,53.149086 C 25.715275,54.837398 26.226385,56.189363 27.217282,57.204983 C 28.208166,58.220606 29.490884,58.741608 31.065442,58.76799 L 31.065442,58.76799 z"
         id="path4959" />
    </clipPath>
    <linearGradient
       inkscape:collect="always"
       xlink:href="#linearGradient3205"
       id="linearGradient4961"
       gradientUnits="userSpaceOnUse"
       x1="45.255413"
       y1="7.263823"
       x2="16.716475"
       y2="56.694717" />
    <linearGradient
       inkscape:collect="always"
       xlink:href="#linearGradient3223"
       id="linearGradient4969"
       x1="25.683956"
       y1="43.625"
       x2="44.75"
       y2="43.625"
       gradientUnits="userSpaceOnUse" />
    <linearGradient
       inkscape:collect="always"
       xlink:href="#linearGradient3205"
       id="linearGradient4976"
       gradientUnits="userSpaceOnUse"
       x1="45.255413"
       y1="7.263823"
       x2="16.716475"
       y2="56.694717" />
    <linearGradient
       inkscape:collect="always"
       xlink:href="#linearGradient3223"
       id="linearGradient4978"
       gradientUnits="userSpaceOnUse"
       x1="24.786621"
       y1="17.75"
       x2="47.75"
       y2="17.75" />
    <linearGradient
       inkscape:collect="always"
       xlink:href="#linearGradient3223"
       id="linearGradient4980"
       gradientUnits="userSpaceOnUse"
       x1="25.683956"
       y1="43.625"
       x2="44.75"
       y2="43.625" />
    <linearGradient
       inkscape:collect="always"
       xlink:href="#linearGradient3205"
       id="linearGradient3203"
       gradientUnits="userSpaceOnUse"
       x1="45.255413"
       y1="7.263823"
       x2="16.716475"
       y2="56.694717"
       gradientTransform="matrix(1.140565,0,0,1.140565,-3.3414699,-4.4744349)" />
    <linearGradient
       inkscape:collect="always"
       xlink:href="#linearGradient3205"
       id="linearGradient3204"
       gradientUnits="userSpaceOnUse"
       gradientTransform="matrix(1.140565,0,0,1.140565,-3.3414699,-4.4744349)"
       x1="45.255413"
       y1="7.263823"
       x2="16.716475"
       y2="56.694717" />
  </defs>
  <sodipodi:namedview
     id="base"
     pagecolor="#ffffff"
     bordercolor="#666666"
     borderopacity="1.0"
     inkscape:pageopacity="0.0"
     inkscape:pageshadow="2"
     inkscape:zoom="5.6568542"
     inkscape:cx="-25.967232"
     inkscape:cy="32.90263"
     inkscape:current-layer="layer1"
     showgrid="true"
     inkscape:document-units="px"
     inkscape:grid-bbox="true"
     inkscape:window-width="1920"
     inkscape:window-height="1144"
     inkscape:window-x="-4"
     inkscape:window-y="-4" />
  <metadata
     id="metadata2428">
    <rdf:RDF>
      <cc:Work
         rdf:about="">
        <dc:format>image/svg+xml</dc:format>
        <dc:type
           rdf:resource="http://purl.org/dc/dcmitype/StillImage" />
      </cc:Work>
    </rdf:RDF>
  </metadata>
  <g
     id="layer1"
     inkscape:label="Layer 1"
     inkscape:groupmode="layer">
    <path
       style="font-size:40px;font-style:normal;font-weight:normal;fill:url(#linearGradient3204);fill-opacity:1;stroke:#000000;stroke-width:1.5;stroke-linecap:butt;stroke-linejoin:miter;stroke-miterlimit:4;stroke-dasharray:none;stroke-opacity:1;font-family:Bitstream Vera Sans"
       d="M 32.090686,1.4457224 C 29.644151,1.4589461 27.92538,1.7711077 26.934367,2.3822081 C 25.943341,2.9934268 25.465696,3.8246049 25.501432,4.8757452 C 25.501426,5.6129543 25.569123,6.5080678 25.704526,7.561091 C 25.839914,8.6142214 26.043008,10.005786 26.313805,11.735789 C 27.069756,16.681535 27.746732,21.683646 28.344739,26.742136 C 28.942727,31.800695 29.529441,37.028466 30.104884,42.425463 C 30.358739,42.876799 30.979302,43.102457 31.966573,43.10244 C 32.95382,43.102458 33.596947,42.8768 33.89596,42.425463 C 34.471375,37.028467 35.058088,31.800698 35.656101,26.742137 C 36.254084,21.683646 36.931061,16.681535 37.687038,11.735789 C 37.95781,10.005784 38.160903,8.6142168 38.296318,7.5610887 C 38.431694,6.5080678 38.499393,5.6129543 38.499411,4.8757452 C 38.525718,3.8246049 38.044313,2.9934263 37.05519,2.3822069 C 36.066034,1.7711054 34.411201,1.4589443 32.090686,1.4457224 L 32.090686,1.4457224 z M 32.090686,62.554278 C 33.973044,62.524188 35.488721,61.929953 36.637719,60.771569 C 37.786684,59.613186 38.37716,58.071182 38.409147,56.145552 C 38.37528,54.25566 37.788564,52.709896 36.649003,51.508251 C 35.509405,50.306625 34.020055,49.686063 32.180949,49.646563 C 30.341814,49.686064 28.852463,50.306628 27.712893,51.508253 C 26.573304,52.709899 25.986591,54.255665 25.952751,56.145552 C 25.988473,58.071182 26.571427,59.613186 27.701609,60.771567 C 28.831777,61.929951 30.2948,62.524187 32.090686,62.554278 L 32.090686,62.554278 z"
       id="text4918" />
    <path
       sodipodi:type="arc"
       style="fill:url(#linearGradient4978);fill-opacity:1;fill-rule:evenodd;stroke:none;stroke-width:1px;stroke-linecap:butt;stroke-linejoin:miter;stroke-opacity:1"
       id="path4931"
       sodipodi:cx="-2"
       sodipodi:cy="-2.5"
       sodipodi:rx="49.75"
       sodipodi:ry="38"
       d="M 47.75,-2.5 A 49.75,38 0 1 1 -51.75,-2.5 A 49.75,38 0 1 1 47.75,-2.5 z"
       transform="matrix(1.140565,0,0,1.140565,-2.7711874,-4.1892937)"
       clip-path="url(#clipPath4935)" />
    <path
       sodipodi:type="arc"
       style="fill:url(#linearGradient4980);fill-opacity:1;fill-rule:evenodd;stroke:none;stroke-width:1px;stroke-linecap:butt;stroke-linejoin:miter;stroke-opacity:1"
       id="path4949"
       sodipodi:cx="24.875"
       sodipodi:cy="43.625"
       sodipodi:rx="19.875"
       sodipodi:ry="11.625"
       d="M 44.75,43.625 A 19.875,11.625 0 1 1 5,43.625 A 19.875,11.625 0 1 1 44.75,43.625 z"
       clip-path="url(#clipPath4957)"
       transform="matrix(1.140565,0,0,1.140565,-3.3414699,-4.4744349)" />
    <path
       style="font-size:40px;font-style:normal;font-weight:normal;fill:none;fill-opacity:1;stroke:#000000;stroke-width:1.50000000000000000;stroke-linecap:butt;stroke-linejoin:miter;stroke-miterlimit:4;stroke-dasharray:none;stroke-opacity:1;font-family:Bitstream Vera Sans"
       d="M 32.090686,1.4457224 C 29.644151,1.4589461 27.92538,1.7711077 26.934367,2.3822081 C 25.943341,2.9934268 25.465696,3.8246049 25.501432,4.8757452 C 25.501426,5.6129543 25.569123,6.5080678 25.704526,7.561091 C 25.839914,8.6142214 26.043008,10.005786 26.313805,11.735789 C 27.069756,16.681535 27.746732,21.683646 28.344739,26.742136 C 28.942727,31.800695 29.529441,37.028466 30.104884,42.425463 C 30.358739,42.876799 30.979302,43.102457 31.966573,43.10244 C 32.95382,43.102458 33.596947,42.8768 33.89596,42.425463 C 34.471375,37.028467 35.058088,31.800698 35.656101,26.742137 C 36.254084,21.683646 36.931061,16.681535 37.687038,11.735789 C 37.95781,10.005784 38.160903,8.6142168 38.296318,7.5610887 C 38.431694,6.5080678 38.499393,5.6129543 38.499411,4.8757452 C 38.525718,3.8246049 38.044313,2.9934263 37.05519,2.3822069 C 36.066034,1.7711054 34.411201,1.4589443 32.090686,1.4457224 L 32.090686,1.4457224 z M 32.090686,62.554278 C 33.973044,62.524188 35.488721,61.929953 36.637719,60.771569 C 37.786684,59.613186 38.37716,58.071182 38.409147,56.145552 C 38.37528,54.25566 37.788564,52.709896 36.649003,51.508251 C 35.509405,50.306625 34.020055,49.686063 32.180949,49.646563 C 30.341814,49.686064 28.852463,50.306628 27.712893,51.508253 C 26.573304,52.709899 25.986591,54.255665 25.952751,56.145552 C 25.988473,58.071182 26.571427,59.613186 27.701609,60.771567 C 28.831777,61.929951 30.2948,62.524187 32.090686,62.554278 L 32.090686,62.554278 z"
       id="path3206" />
  </g>
</svg>
